<svg width="337" height="106" viewBox="0 0 337 106" fill="none">
<path d="M4.42867 21.4211H26.824V61.6031H46.159V78.9218H4.42867V21.4211ZM62.7575 13.4279C66.286 13.4279 68.9024 14.172 70.6067 15.6602C72.3109 17.1244 73.151 18.9967 73.127 21.2771C73.127 23.5574 72.0349 25.6577 69.8505 27.578C67.6902 29.4983 64.7978 30.4584 61.1732 30.4584C56.0845 30.4584 52.916 28.9222 51.6678 25.8497C51.3077 24.9856 51.1277 24.0255 51.1277 22.9693C51.1277 21.9131 51.3798 20.809 51.8838 19.6568C52.3879 18.5046 53.144 17.4725 54.1522 16.5603C56.3845 14.472 59.2529 13.4279 62.7575 13.4279ZM72.5149 78.9218H51.6678V34.167H72.5149V78.9218ZM105.532 46.3368C103.612 46.3368 102.651 47.8851 102.651 50.9815V78.9218H81.2643V34.167H93.074L98.2228 41.1521C100.143 38.4877 102.796 36.3753 106.18 34.8151C109.589 33.2549 112.769 32.4747 115.721 32.4747C121.146 32.4747 125.443 33.915 128.611 36.7954C131.804 39.6758 133.4 43.5404 133.4 48.3891V78.9218H111.869V57.3185C111.869 49.9974 109.757 46.3368 105.532 46.3368ZM161.52 64.4116C161.184 64.9636 160.98 65.3717 160.908 65.6357V78.9218H141.897V18.3246H160.548V47.525L169.046 34.167H190.253L176.463 53.7179L192.485 78.9218H170.522L161.52 64.4116Z" fill="#0000FF"/>
<path d="M222.323 52.8963H229.402V79H222.913V75.5343C219.128 78.238 214.335 79.5899 208.534 79.5899C203.864 79.5899 199.513 78.5576 195.482 76.4929C191.501 74.4282 188.305 71.4294 185.896 67.4967C183.537 63.5148 182.357 58.8201 182.357 53.4125C182.357 48.2999 183.537 43.7281 185.896 39.697C188.305 35.666 191.599 32.5198 195.777 30.2584C200.005 27.9479 204.749 26.7927 210.009 26.7927C214.138 26.7927 217.875 27.4809 221.217 28.8574C224.609 30.1847 227.485 32.1511 229.845 34.7565L225.273 39.3283C221.144 35.3464 216.154 33.3555 210.304 33.3555C206.371 33.3555 202.832 34.2158 199.686 35.9363C196.589 37.6569 194.155 40.0412 192.385 43.089C190.616 46.1369 189.731 49.5781 189.731 53.4125C189.731 57.4928 190.616 61.0322 192.385 64.031C194.204 67.0297 196.589 69.3156 199.538 70.8887C202.488 72.4126 205.683 73.1746 209.124 73.1746C211.533 73.1746 213.868 72.7813 216.129 71.9948C218.44 71.1591 220.505 69.9547 222.323 68.3816V52.8963ZM279.358 39.9183V79H272.574V72.8059C271.001 74.9689 269.01 76.6158 266.601 77.7464C264.192 78.8771 261.538 79.4424 258.637 79.4424C254.852 79.4424 251.46 78.6067 248.461 76.9353C245.462 75.2639 243.103 72.9288 241.382 69.9301C239.711 66.8822 238.875 63.3919 238.875 59.4591C238.875 55.5264 239.711 52.0606 241.382 49.0619C243.103 46.0632 245.462 43.7281 248.461 42.0567C251.46 40.3853 254.852 39.5496 258.637 39.5496C261.439 39.5496 264.02 40.0903 266.38 41.1718C268.739 42.2042 270.706 43.7527 272.279 45.8174V39.9183H279.358ZM259.227 73.2483C261.685 73.2483 263.922 72.683 265.937 71.5523C267.953 70.3725 269.526 68.7503 270.657 66.6856C271.787 64.5717 272.353 62.1629 272.353 59.4591C272.353 56.7554 271.787 54.3711 270.657 52.3064C269.526 50.1926 267.953 48.5703 265.937 47.4397C263.922 46.309 261.685 45.7437 259.227 45.7437C256.72 45.7437 254.459 46.309 252.443 47.4397C250.477 48.5703 248.904 50.1926 247.724 52.3064C246.593 54.3711 246.028 56.7554 246.028 59.4591C246.028 62.1629 246.593 64.5717 247.724 66.6856C248.904 68.7503 250.477 70.3725 252.443 71.5523C254.459 72.683 256.72 73.2483 259.227 73.2483ZM329.621 24.2856V79H322.837V72.8059C321.264 74.9689 319.273 76.6158 316.865 77.7464C314.456 78.8771 311.801 79.4424 308.901 79.4424C305.115 79.4424 301.723 78.6067 298.725 76.9353C295.726 75.2639 293.366 72.9288 291.646 69.9301C289.974 66.8822 289.139 63.3919 289.139 59.4591C289.139 55.5264 289.974 52.0606 291.646 49.0619C293.366 46.0632 295.726 43.7281 298.725 42.0567C301.723 40.3853 305.115 39.5496 308.901 39.5496C311.703 39.5496 314.284 40.0903 316.643 41.1718C319.003 42.2042 320.969 43.7527 322.542 45.8174V24.2856H329.621ZM309.491 73.2483C311.949 73.2483 314.185 72.683 316.201 71.5523C318.216 70.3725 319.79 68.7503 320.92 66.6856C322.051 64.5717 322.616 62.1629 322.616 59.4591C322.616 56.7554 322.051 54.3711 320.92 52.3064C319.79 50.1926 318.216 48.5703 316.201 47.4397C314.185 46.309 311.949 45.7437 309.491 45.7437C306.983 45.7437 304.722 46.309 302.707 47.4397C300.74 48.5703 299.167 50.1926 297.987 52.3064C296.857 54.3711 296.291 56.7554 296.291 59.4591C296.291 62.1629 296.857 64.5717 297.987 66.6856C299.167 68.7503 300.74 70.3725 302.707 71.5523C304.722 72.683 306.983 73.2483 309.491 73.2483Z" fill="#FFA500"/>
</svg>
